# xmcd
#
# Track frame offsets: 
#        150
#        2652
#        19025
#        23862
#        37075
#        38788
#        42441
#        45277
#        51023
#        55423
#        59518
#        63512
#        69686
#        76027
#        89021
#        105283
#        110716
#        119464
#        123559
#        126056
#        129317
#        130575
#        134024
#        135729
#        140159
#        142041
#        146090
#        152452
#        162217
#        177058
#        193960
#        198882
#        206216
#        213155
#        217015
#        221625
#        225076
#        236514
#        242816
#        248686
#        258399
#
# Disc length: 3462 seconds
#
# Revision: 0
# Processed by: cddbd v1.5.2PL0 Copyright (c) Steve Scherf et al.
# Submitted via: ExactAudioCopy v0.99pb4
#
DISCID=630d8429
DTITLE=Stefan Grossman - Bottleneck Blues Guitar - Lesson Three
DYEAR=2004
DGENRE=Blues
TTITLE0=Introduction
TTITLE1=Muddy Water's recording of I Can't Be Satisfied
TTITLE2=Tuning to open G runing (D G D G B D)
TTITLE3=Teaching of first and second phrases of I Can't Be Satisfied
TTITLE4=Plays first and second phrases of I Can't Be Satisfied
TTITLE5=Teaching of third phrase of I Can't Be Satisfied
TTITLE6=Plays first three phrases of I Can't Be Satisfied
TTITLE7=Teaching of fourth phrase of I Can't Be Satisfied
TTITLE8=Teaching of fifth phrase of I Can't Be Satisfied
TTITLE9=Teaching of sixth phrase of I Can't Be Satisfied
TTITLE10=Teaching of last phrase of I Can't Be Stisfied
TTITLE11=Plays slowly I Can't Be Satisfied
TTITLE12=Plays up to tempo I Can't Be Satisfied
TTITLE13=Sleepy John Este's recording of Someday Baby Blues
TTITLE14=Jo Ann Kelly and Stefan perform Someday Baby
TTITLE15=Plays Someday Baby
TTITLE16=Teaching of last two phrases of Someday Baby
TTITLE17=Plays last two phrases of Someday Baby
TTITLE18=Teaching of first phrase of Someday Baby
TTITLE19=Teaching of second phrase of Someday Baby
TTITLE20=Plays first and second phrase of Someday Baby
TTITLE21=Teaching of third phrase of Someday Baby
TTITLE22=Plays first three phrases of Someday Baby
TTITLE23=Teaching of fourth phrase of Someday Baby
TTITLE24=Plays first four phrases of Someday Baby
TTITLE25=Teaching of fifth phrase of Someday Baby
TTITLE26=Teaching of sixth phrase of Someday Baby
TTITLE27=Plays Someday Baby
TTITLE28=Fred McDowell plays Someday Baby
TTITLE29=Hambone Willie Newburn's recording of Roll and Tumble Blues
TTITLE30=Plays Roll and Tumble Blues
TTITLE31=Teaching of first two phrases of Toll and Tumble Blues
TTITLE32=Teaching of third phrase of Toll and Tumble Blues
TTITLE33=Teaching of fourth phrase of Roll and Tumble Blues
TTITLE34=Teaching of last phrase of Roll and Tumble Blues
TTITLE35=Plays Roll and Tumble Blues
TTITLE36=Teaching playing the melody line with block chords
TTITLE37=Muddy Water's recording of Roll and Tumble Blues
TTITLE38=Baby Face Leroy's recording of Roll and Tumble Blues
TTITLE39=Fred McDowell plays of Gravel Road Blues
TTITLE40=Closing thoughts
EXTD=
EXTT0=
EXTT1=
EXTT2=
EXTT3=
EXTT4=
EXTT5=
EXTT6=
EXTT7=
EXTT8=
EXTT9=
EXTT10=
EXTT11=
EXTT12=
EXTT13=
EXTT14=
EXTT15=
EXTT16=
EXTT17=
EXTT18=
EXTT19=
EXTT20=
EXTT21=
EXTT22=
EXTT23=
EXTT24=
EXTT25=
EXTT26=
EXTT27=
EXTT28=
EXTT29=
EXTT30=
EXTT31=
EXTT32=
EXTT33=
EXTT34=
EXTT35=
EXTT36=
EXTT37=
EXTT38=
EXTT39=
EXTT40=
PLAYORDER=
